<svg width="24" height="24" viewBox="0 0 24 24" fill="none" xmlns="http://www.w3.org/2000/svg">
<path fill-rule="evenodd" clip-rule="evenodd" d="M12 22C17.5228 22 22 17.5228 22 12C22 6.47715 17.5228 2 12 2C6.47715 2 2 6.47715 2 12C2 17.5228 6.47715 22 12 22ZM14.5 17.1137L14.3372 17.8473C13.8481 18.0599 13.4575 18.2218 13.1666 18.3331C12.8755 18.4443 12.537 18.5 12.1516 18.5C11.5594 18.5 11.0989 18.3404 10.7707 18.0234C10.4424 17.7046 10.278 17.3009 10.278 16.8119C10.278 16.6217 10.2898 16.4273 10.3147 16.2283C10.3398 16.0298 10.3796 15.8055 10.4338 15.5553L11.0448 13.1734C11.0994 12.9457 11.1454 12.7292 11.1827 12.5252C11.2199 12.3217 11.2383 12.1352 11.2383 11.9671C11.2383 11.6628 11.1811 11.4498 11.0673 11.3301C10.9534 11.2109 10.736 11.1508 10.4133 11.1508C10.2555 11.1508 10.0932 11.1782 9.92775 11.2322C9.76138 11.2862 9.61945 11.3384 9.5 11.3874L9.66336 10.6527C10.0635 10.4733 10.4465 10.3198 10.8125 10.1923C11.1786 10.064 11.5242 10 11.8514 10C12.4395 10 12.8929 10.1567 13.2114 10.4693C13.53 10.7825 13.6893 11.1889 13.6893 11.6887C13.6893 11.7928 13.6791 11.9748 13.6566 12.2357C13.6347 12.4965 13.5938 12.736 13.5341 12.9536L12.9256 15.3259C12.8755 15.5166 12.8311 15.7346 12.7919 15.9797C12.7515 16.2232 12.7325 16.4093 12.7325 16.5341C12.7325 16.8489 12.7964 17.0643 12.924 17.1784C13.0527 17.2924 13.2748 17.3498 13.5897 17.3498C13.7378 17.3498 13.9063 17.3206 14.0932 17.2638C14.2794 17.2071 14.4157 17.1576 14.5 17.1137ZM13.5611 8.56228C13.8541 8.27152 14 7.91774 14 7.50367C14 7.09019 13.8546 6.73583 13.5611 6.44118C13.2691 6.14768 12.9169 6 12.505 6C12.0918 6 11.7378 6.14711 11.4431 6.44118C11.1479 6.73583 11 7.09019 11 7.50367C11 7.91774 11.1479 8.27095 11.4431 8.56228C11.7388 8.85404 12.0914 9 12.505 9C12.9169 9 13.2691 8.85404 13.5611 8.56228Z" fill="#70727D"/>
</svg>
