<svg width="24" height="24" viewBox="0 0 24 24" fill="none" xmlns="http://www.w3.org/2000/svg">
<path fill-rule="evenodd" clip-rule="evenodd" d="M4 4C2.89543 4 2 4.89543 2 6V18C2 19.1046 2.89543 20 4 20H20C21.1046 20 22 19.1046 22 18V6C22 4.89543 21.1046 4 20 4H4ZM5 6C4.44772 6 4 6.44772 4 7C4 7.55228 4.44772 8 5 8H19C19.5523 8 20 7.55228 20 7C20 6.44772 19.5523 6 19 6H5ZM5 12C4.44772 12 4 12.4477 4 13V17C4 17.5523 4.44772 18 5 18H19C19.5523 18 20 17.5523 20 17V13C20 12.4477 19.5523 12 19 12H5Z" fill="#70727D"/>
</svg>
