<svg width="24" height="24" viewBox="0 0 24 24" fill="none" xmlns="http://www.w3.org/2000/svg">
<path d="M18.939 9.47143C18.898 9.40057 18.8387 9.34162 18.7669 9.30061C18.6952 9.2596 18.6136 9.23799 18.5306 9.23799H12.3816L13.4125 1.51142C13.4236 1.40801 13.3989 1.30396 13.3423 1.21602C13.2858 1.12808 13.2007 1.06136 13.1008 1.02662C13.0009 0.991875 12.892 0.991122 12.7916 1.02448C12.6912 1.05784 12.6051 1.12337 12.5473 1.21052L5.06953 14.0617C5.0258 14.1315 5.00183 14.2114 5.0001 14.2933C4.99837 14.3752 5.01893 14.456 5.05967 14.5275C5.1004 14.599 5.15984 14.6585 5.23185 14.7C5.30386 14.7414 5.38584 14.7633 5.46933 14.7633H11.5264L10.7094 22.5015C10.7014 22.6046 10.7288 22.7073 10.7871 22.7933C10.8455 22.8794 10.9315 22.9438 11.0315 22.9764C11.1315 23.009 11.2397 23.0078 11.3389 22.9731C11.4381 22.9384 11.5227 22.8721 11.5791 22.7848L18.9333 9.93499C18.976 9.86511 18.999 9.78539 19 9.70396C19.001 9.62252 18.9799 9.54229 18.939 9.47143Z" fill="#70727D"/>
</svg>
