<svg width="24" height="24" viewBox="0 0 24 24" fill="none" xmlns="http://www.w3.org/2000/svg">
<path fill-rule="evenodd" clip-rule="evenodd" d="M21.7335 18.0278L13.7008 3.99074C13.346 3.3704 12.7101 3 12 3C11.2899 3 10.654 3.3704 10.2992 3.99074L2.26643 18.0278C1.91119 18.648 1.91119 19.3889 2.26643 20.0093C2.62127 20.6295 3.25717 21 3.96725 21H20.0331C20.7428 21 21.3787 20.6295 21.7339 20.0093C22.0888 19.3889 22.0888 18.648 21.7335 18.0278ZM12 18C11.4487 18 11 17.5514 11 17C11 16.4487 11.4487 16 12 16C12.5514 16 13 16.4487 13 17C13 17.5514 12.5514 18 12 18ZM12 7C11.4477 7 11 7.44772 11 8V14C11 14.5523 11.4477 15 12 15C12.5523 15 13 14.5523 13 14V8C13 7.44772 12.5523 7 12 7Z" fill="#70727D"/>
</svg>
