<svg width="24" height="24" viewBox="0 0 24 24" fill="none" xmlns="http://www.w3.org/2000/svg">
<path d="M16.59 7.61C16.59 10.156 14.526 12.22 11.98 12.22C9.43397 12.22 7.37 10.156 7.37 7.61C7.37 5.06397 9.43397 3 11.98 3C14.526 3 16.59 5.06397 16.59 7.61Z" fill="#70727D"/>
<path d="M15.35 13.6C17.0553 13.6016 18.6686 14.3734 19.74 15.7C20.5566 16.7027 21.0017 17.9568 21 19.25C21 20.2165 20.2165 21 19.25 21H4.75C4.28587 21 3.84075 20.8156 3.51256 20.4874C3.18437 20.1592 3 19.7141 3 19.25C3 16.1296 5.52959 13.6 8.65 13.6H15.35Z" fill="#70727D"/>
</svg>
