<svg width="24" height="24" viewBox="0 0 24 24" fill="none" xmlns="http://www.w3.org/2000/svg">
<path fill-rule="evenodd" clip-rule="evenodd" d="M8.35387 6.59277V5.61446C8.35387 4.65584 8.73802 3.73649 9.42181 3.05865C10.1056 2.38081 11.033 2 12 2C12.9671 2 13.8945 2.38081 14.5783 3.05865C15.2621 3.73649 15.6462 4.65584 15.6462 5.61446V6.59277C16.8976 6.63036 17.6638 6.76337 18.2481 7.24434C19.058 7.91133 19.272 9.03904 19.6988 11.2954L20.428 15.1508C21.0279 18.3239 21.3274 19.9104 20.4533 20.9552C19.5782 22 17.9496 22 14.6933 22H9.30674C6.04949 22 4.42184 22 3.54676 20.9552C2.67168 19.9104 2.9731 18.3239 3.57204 15.1508L4.30128 11.2954C4.72909 9.04 4.94203 7.91133 5.75197 7.24434C6.33633 6.76337 7.10251 6.63036 8.35387 6.59277ZM9.81234 5.61446C9.81234 5.03929 10.0428 4.48768 10.4531 4.08097C10.8634 3.67427 11.4198 3.44578 12 3.44578C12.5803 3.44578 13.1367 3.67427 13.547 4.08097C13.9572 4.48768 14.1877 5.03929 14.1877 5.61446V6.57831H9.81234V5.61446ZM8.56778 10.8867C8.70451 10.7514 8.88986 10.6753 9.0831 10.6753C9.27635 10.6753 9.4617 10.7514 9.59843 10.8867L12 13.2675L14.4016 10.8867C14.4684 10.8157 14.5489 10.7588 14.6384 10.7192C14.7278 10.6797 14.8244 10.6585 14.9223 10.6568C15.0202 10.6551 15.1175 10.6729 15.2083 10.7093C15.2991 10.7456 15.3816 10.7998 15.4508 10.8684C15.5201 10.937 15.5746 11.0188 15.6113 11.1088C15.648 11.1988 15.666 11.2952 15.6643 11.3923C15.6626 11.4894 15.6411 11.5851 15.6013 11.6738C15.5614 11.7624 15.5039 11.8423 15.4323 11.9084L13.0307 14.2892L15.4323 16.6699C15.5611 16.8069 15.6312 16.9882 15.6279 17.1754C15.6246 17.3627 15.548 17.5414 15.4144 17.6739C15.2808 17.8063 15.1006 17.8822 14.9116 17.8855C14.7227 17.8888 14.5399 17.8193 14.4016 17.6916L12 15.3108L9.59843 17.6916C9.46019 17.8193 9.27735 17.8888 9.08843 17.8855C8.89951 17.8822 8.71926 17.8063 8.58565 17.6739C8.45204 17.5414 8.37551 17.3627 8.37217 17.1754C8.36884 16.9882 8.43897 16.8069 8.56778 16.6699L10.9694 14.2892L8.56778 11.9084C8.43122 11.7729 8.35451 11.5892 8.35451 11.3976C8.35451 11.206 8.43122 11.0223 8.56778 10.8867Z" fill="#70727D"/>
</svg>
