<svg width="24" height="24" viewBox="0 0 24 24" fill="none" xmlns="http://www.w3.org/2000/svg">
<path fill-rule="evenodd" clip-rule="evenodd" d="M22.125 8.80884C22.125 8.7217 22.1043 8.63872 22.0588 8.56403L19.0465 3.2531C18.9596 3.09958 18.7941 3 18.6162 3H5.37965C5.20173 3 5.03622 3.09543 4.94933 3.2531L1.9412 8.56403C1.89983 8.63872 1.875 8.7217 1.875 8.80884C1.875 9.99965 2.59083 11.0203 3.61284 11.4726L3.6087 20.5021C3.6087 20.7759 3.83214 21 4.10523 21H19.8824C20.1554 21 20.3789 20.7759 20.3789 20.5021L20.383 11.5348C20.383 11.5141 20.383 11.4975 20.3789 11.4809C21.405 11.0286 22.125 10.0038 22.125 8.80884ZM6.21429 19.3656V13.342C6.21429 12.9048 6.536 12.5466 6.93814 12.5466H9.82972C10.2276 12.5466 10.5536 12.9001 10.5536 13.342V19.3656H6.21429ZM12.7232 12.5466C12.3238 12.5466 12 12.8519 12 13.2285V15.9561C12 16.3327 12.3238 16.638 12.7232 16.638H17.0625C17.4619 16.638 17.7857 16.3327 17.7857 15.9561V13.2285C17.7857 12.8519 17.4619 12.5466 17.0625 12.5466H12.7232Z" fill="#70727D"/>
</svg>
