<svg width="24" height="24" viewBox="0 0 24 24" fill="none" xmlns="http://www.w3.org/2000/svg">
<path fill-rule="evenodd" clip-rule="evenodd" d="M22 12C22 17.5228 17.5228 22 12 22C6.47715 22 2 17.5228 2 12C2 6.47715 6.47715 2 12 2C17.5228 2 22 6.47715 22 12ZM10.2221 16.3636C10.1383 16.5657 10.0952 16.7823 10.0952 17.001C10.0952 17.4428 10.2708 17.8665 10.5834 18.1788C10.8959 18.4912 11.3199 18.6667 11.7619 18.6667C12.2039 18.6667 12.6278 18.4912 12.9404 18.1788C13.253 17.8665 13.4285 17.4428 13.4285 17.001C13.4285 16.7823 13.3854 16.5657 13.3017 16.3636C13.2179 16.1615 13.0952 15.9779 12.9404 15.8233C12.7856 15.6686 12.6019 15.5459 12.3997 15.4622C12.1975 15.3785 11.9808 15.3354 11.7619 15.3354C11.543 15.3354 11.3263 15.3785 11.1241 15.4622C10.9219 15.5459 10.7381 15.6686 10.5834 15.8233C10.4286 15.9779 10.3058 16.1615 10.2221 16.3636ZM10.3239 6.3754C10.2586 6.57638 10.2364 6.78883 10.2585 6.99896L10.8419 12.8403C10.8656 13.0668 10.9724 13.2764 11.1417 13.4288C11.3109 13.5812 11.5307 13.6656 11.7585 13.6656C11.9864 13.6656 12.2062 13.5812 12.3754 13.4288C12.5447 13.2764 12.6515 13.0668 12.6752 12.8403L13.2585 6.99896C13.2807 6.78883 13.2585 6.57638 13.1932 6.3754C13.1279 6.17441 13.0211 5.98939 12.8797 5.83233C12.7382 5.67527 12.5653 5.54969 12.3722 5.46372C12.1791 5.37776 11.97 5.33333 11.7585 5.33333C11.5471 5.33333 11.338 5.37776 11.1449 5.46372C10.9518 5.54969 10.7789 5.67527 10.6374 5.83233C10.496 5.98939 10.3892 6.17441 10.3239 6.3754Z" fill="#70727D"/>
</svg>
