<svg width="24" height="24" viewBox="0 0 24 24" fill="none" xmlns="http://www.w3.org/2000/svg">
<path fill-rule="evenodd" clip-rule="evenodd" d="M17.0248 3C16.1526 3.05906 15.3347 3.44513 14.7348 4.08105C14.1349 4.71698 13.797 5.55589 13.7889 6.4301C13.7889 7.10965 13.8536 7.78922 13.9021 8.46877C13.9765 9.10494 14.2251 9.7082 14.6205 10.2121C15.0159 10.716 15.5428 11.1009 16.143 11.3245L15.8437 20.191C15.8437 20.4056 15.9289 20.6113 16.0806 20.763C16.2323 20.9147 16.4381 21 16.6527 21H17.405C17.6196 21 17.8253 20.9147 17.9771 20.763C18.1288 20.6113 18.214 20.4056 18.214 20.191L17.8985 11.2921C18.4987 11.0686 19.0256 10.6836 19.421 10.1797C19.8164 9.67585 20.065 9.07257 20.1394 8.4364C20.188 7.75685 20.2284 7.07731 20.2527 6.39776C20.2347 5.53104 19.8939 4.70222 19.2968 4.07372C18.6997 3.44522 17.8895 3.06231 17.0248 3Z" fill="#70727D"/>
<path fill-rule="evenodd" clip-rule="evenodd" d="M9.54157 3.26698C9.47433 3.24097 9.40161 3.23235 9.33014 3.24189C9.25868 3.25144 9.19077 3.27885 9.13271 3.32159C9.07464 3.36433 9.0283 3.42101 8.99796 3.48641C8.96761 3.55181 8.95424 3.6238 8.9591 3.69574C9.00764 5.16001 9.02382 6.62429 9.01573 8.08856V8.50923C9.01171 8.62166 8.96525 8.7284 8.8857 8.80796C8.80615 8.88751 8.69941 8.93397 8.58697 8.93799C8.4754 8.93799 8.36839 8.89366 8.2895 8.81477C8.21061 8.73588 8.16628 8.62889 8.16628 8.51732V8.09664C8.16628 6.68091 8.16628 5.27328 8.16628 3.85755C8.16628 3.64299 8.08106 3.43723 7.92935 3.28552C7.77763 3.1338 7.57185 3.04856 7.35729 3.04856C7.14274 3.04856 6.93698 3.1338 6.78527 3.28552C6.63355 3.43723 6.54831 3.64299 6.54831 3.85755C6.54831 5.27328 6.54831 6.68091 6.54831 8.09664V8.51732C6.54831 8.62889 6.504 8.73588 6.42511 8.81477C6.34622 8.89366 6.23921 8.93799 6.12764 8.93799C6.01521 8.93397 5.90847 8.88751 5.82891 8.80796C5.74936 8.7284 5.7029 8.62166 5.69888 8.50923V8.0562C5.69888 6.59193 5.69889 5.12767 5.75551 3.6634C5.76037 3.59146 5.747 3.51947 5.71666 3.45407C5.68631 3.38866 5.63997 3.33196 5.58191 3.28922C5.52384 3.24648 5.45594 3.21907 5.38447 3.20953C5.31301 3.19999 5.24029 3.20863 5.17304 3.23464C4.98507 3.30732 4.81916 3.42751 4.69155 3.58348C4.56393 3.73946 4.47898 3.92589 4.44496 4.12453C4.25889 5.43509 4.10517 6.73754 4 8.02383V8.83282C4.04749 9.49522 4.32629 10.1199 4.78768 10.5975C5.24907 11.0752 5.86368 11.3755 6.52404 11.4459L6.13574 20.191C6.13574 20.4056 6.22096 20.6113 6.37267 20.763C6.52439 20.9148 6.73017 21 6.94473 21H7.69708C7.91164 21 8.11739 20.9148 8.26911 20.763C8.42082 20.6113 8.50607 20.4056 8.50607 20.191L8.16628 11.5106C8.82664 11.4402 9.44125 11.1399 9.90264 10.6622C10.364 10.1846 10.6428 9.55995 10.6903 8.89755V8.08856C10.5852 6.80227 10.4315 5.4998 10.2454 4.18924C10.2189 3.98742 10.1399 3.79608 10.0165 3.63427C9.89296 3.47245 9.72923 3.34581 9.54157 3.26698Z" fill="#70727D"/>
</svg>
