<svg width="24" height="24" viewBox="0 0 24 24" fill="none" xmlns="http://www.w3.org/2000/svg">
<path d="M20.7813 9.17219L13.0024 3.31494C12.43 2.89502 11.6502 2.89502 11.0778 3.31494L7.38883 6.00368L3.21874 9.17219C3.01469 9.34004 2.94458 9.62111 3.04599 9.86472C3.1474 10.1083 3.39653 10.2573 3.65981 10.2317H4.0708L5.07323 20.0771C5.16995 20.6423 5.68272 21.041 6.25609 20.9966H8.78221C9.20296 20.9966 9.54405 20.6565 9.54405 20.237V16.6987C9.54615 16.0522 9.78092 15.4279 10.2057 14.9395C10.6001 14.4844 11.1505 14.1922 11.7494 14.1199C12.4405 14.0523 13.1282 14.2784 13.6434 14.7427C14.1586 15.207 14.4536 15.8663 14.4559 16.5587V20.237C14.4559 20.6565 14.797 20.9966 15.2178 20.9966H17.7439C18.3061 21.025 18.8011 20.6302 18.8967 20.0771L19.3378 15.8391L19.9292 10.2317H20.3402C20.6035 10.2573 20.8526 10.1083 20.954 9.86472C21.0554 9.62111 20.9853 9.34004 20.7813 9.17219Z" fill="#70727D"/>
</svg>
