<svg width="24" height="24" viewBox="0 0 24 24" fill="none" xmlns="http://www.w3.org/2000/svg">
<path fill-rule="evenodd" clip-rule="evenodd" d="M2 6C2 3.79086 3.79086 2 6 2H18C20.2091 2 22 3.79086 22 6V18C22 20.2091 20.2091 22 18 22H6C3.79086 22 2 20.2091 2 18V6ZM17.9999 7.99994C18.5522 7.44765 18.5522 6.55217 17.9999 5.99989C17.4476 5.44766 16.5522 5.4477 15.9999 5.99997L13.4141 8.58589V4.9288C13.4141 4.14778 12.781 3.51464 12 3.51464C11.219 3.51464 10.5858 4.14777 10.5858 4.92877L10.5857 8.58584L7.99986 5.99996C7.4476 5.4477 6.5522 5.4477 5.99994 5.99996C5.44768 6.55222 5.44767 7.44759 5.99992 7.99986L8.58567 10.5857L4.92877 10.5858C4.14777 10.5858 3.51465 11.219 3.51465 12C3.51465 12.781 4.14779 13.4141 4.92881 13.4141L8.58579 13.4141L5.99991 16.0001C5.44767 16.5524 5.44768 17.4478 5.99994 18C6.5522 18.5523 7.4476 18.5523 7.99986 18L10.5858 15.4141L10.5857 19.071C10.5857 19.8521 11.2188 20.4852 11.9998 20.4853C12.7809 20.4853 13.4141 19.8521 13.4141 19.071L13.414 15.414L15.9999 18C16.5522 18.5523 17.4476 18.5523 17.9999 18.0001C18.5522 17.4478 18.5522 16.5524 17.9999 16.0001L15.4138 13.414L19.071 13.4141C19.8521 13.4141 20.4853 12.7809 20.4853 11.9998C20.4852 11.2188 19.8521 10.5857 19.071 10.5857L15.4139 10.5858L17.9999 7.99994Z" fill="#70727D"/>
</svg>
