<svg width="24" height="24" viewBox="0 0 24 24" fill="none" xmlns="http://www.w3.org/2000/svg">
<path fill-rule="evenodd" clip-rule="evenodd" d="M15.7807 14.5131C16.0591 14.5863 16.3137 14.7308 16.5192 14.9323L20.6712 19.1042C20.8815 19.3107 21 19.593 21 19.8877C21 20.1824 20.8815 20.4648 20.6712 20.6712C20.4648 20.8815 20.1824 21 19.8877 21C19.593 21 19.3107 20.8815 19.1042 20.6712L14.9323 16.5093C14.7292 16.3088 14.5844 16.057 14.5131 15.7807L14.3335 15.082C11.5314 17.4819 7.33374 17.2387 4.82755 14.5313C2.32137 11.8239 2.40247 7.61997 5.01122 5.01122C7.61997 2.40247 11.8239 2.32137 14.5313 4.82755C17.2387 7.33374 17.4819 11.5314 15.082 14.3335L15.7807 14.5131ZM5.65911 12.0335C6.59246 13.8654 8.60024 14.887 10.6305 14.5629C12.6502 14.2405 14.2354 12.6593 14.5629 10.6405C14.8922 8.61101 13.8757 6.60064 12.0462 5.66264C10.2166 4.72464 7.99094 5.07284 6.53528 6.52481C5.07962 7.97678 4.72577 10.2015 5.65911 12.0335Z" fill="#70727D"/>
</svg>
