<svg width="24" height="24" viewBox="0 0 24 24" fill="none" xmlns="http://www.w3.org/2000/svg">
<path fill-rule="evenodd" clip-rule="evenodd" d="M20.1834 8.99583H17.1932V8.06731C17.1932 5.26871 14.9038 3 12.0797 3C9.26139 3.02134 6.9789 5.27448 6.9464 8.06731V8.99583H3.81655C3.27744 8.98917 2.76389 9.22311 2.41798 9.63294C2.07206 10.0428 1.93046 10.585 2.03234 11.1097L3.59726 18.5674C3.76181 19.4111 4.51456 20.0153 5.38147 19.9997H18.6185C19.4643 19.9981 20.1928 19.4082 20.3629 18.5872L21.1802 14.6953L21.9677 11.1097C22.0695 10.585 21.9279 10.0428 21.582 9.63294C21.2361 9.22311 20.7226 8.98917 20.1834 8.99583ZM8.94006 8.0674C8.8747 6.92292 9.45369 5.83654 10.4444 5.24478C11.4351 4.65302 12.6748 4.65302 13.6655 5.24478C14.6562 5.83654 15.2352 6.92292 15.1698 8.0674V8.99592H8.94006V8.0674ZM9.59766 14.4982C9.59766 15.8129 10.6732 16.8787 11.9999 16.8787C13.2887 16.8644 14.3323 15.8369 14.355 14.5598C14.3778 13.2827 13.3715 12.2193 12.084 12.1598C10.7965 12.1004 9.69481 13.0665 9.59766 14.3401V14.4982Z" fill="#70727D"/>
</svg>
