<svg width="24" height="24" viewBox="0 0 24 24" fill="none" xmlns="http://www.w3.org/2000/svg">
<path fill-rule="evenodd" clip-rule="evenodd" d="M6 2C3.79086 2 2 3.79086 2 6V18C2 20.2091 3.79086 22 6 22H18C20.2091 22 22 20.2091 22 18V6C22 3.79086 20.2091 2 18 2H6ZM6.57516 10.2353H13.8954C14.473 10.2353 14.9412 9.70857 14.9412 9.05882C14.9412 8.40908 14.473 7.88235 13.8954 7.88235H6.57516C5.99761 7.88235 5.52941 8.40908 5.52941 9.05882C5.52941 9.70857 5.99761 10.2353 6.57516 10.2353ZM6.60468 16.1176H16.9541C17.548 16.1176 18.0294 15.5909 18.0294 14.9412C18.0294 14.2914 17.548 13.7647 16.9541 13.7647H6.60468C6.01083 13.7647 5.52941 14.2914 5.52941 14.9412C5.52941 15.5909 6.01083 16.1176 6.60468 16.1176Z" fill="#70727D"/>
</svg>
