<svg width="24" height="24" viewBox="0 0 24 24" fill="none" xmlns="http://www.w3.org/2000/svg">
<path d="M18.9919 15.493H7.75178C7.90954 15.0097 7.96728 14.4993 7.92148 13.993V13.933L16.7159 13.123C17.9163 13.0218 18.9012 12.1293 19.1217 10.943L19.9902 6.45296C20.0309 6.16446 19.944 5.87251 19.7522 5.65347C19.5604 5.43443 19.2828 5.31008 18.9919 5.31296H6.84339C6.5715 4.78321 6.13297 4.35795 5.59559 4.10296L3.4394 3.10296C3.11549 2.9431 2.73065 2.97093 2.43302 3.17575C2.1354 3.38057 1.97138 3.73043 2.00412 4.09067C2.03686 4.45091 2.26125 4.76535 2.5909 4.91296L4.74709 5.91296C4.99611 6.02504 5.1671 6.26104 5.1963 6.53296L5.93499 14.173C5.9656 14.4134 5.93469 14.6577 5.84515 14.883L5.73534 15.213C5.54642 15.7344 5.62334 16.3154 5.94143 16.7695C6.25952 17.2236 6.77877 17.4936 7.33252 17.493H18.9919C19.5432 17.493 19.9902 17.0452 19.9902 16.493C19.9902 15.9407 19.5432 15.493 18.9919 15.493Z" fill="#70727D"/>
<path d="M9.5 21C10.3284 21 11 20.3284 11 19.5C11 18.6716 10.3284 18 9.5 18C8.67157 18 8 18.6716 8 19.5C8 20.3284 8.67157 21 9.5 21Z" fill="#70727D"/>
<path d="M16.5 21C17.3284 21 18 20.3284 18 19.5C18 18.6716 17.3284 18 16.5 18C15.6716 18 15 18.6716 15 19.5C15 20.3284 15.6716 21 16.5 21Z" fill="#70727D"/>
</svg>
